<?xml version="1.0" standalone="no"?>
<!DOCTYPE svg PUBLIC "-//W3C//DTD SVG 20010904//EN"
 "http://www.w3.org/TR/2001/REC-SVG-20010904/DTD/svg10.dtd">
<svg version="1.0" xmlns="http://www.w3.org/2000/svg"
 width="2841.000000pt" height="2841.000000pt" viewBox="0 0 2841.000000 2841.000000"
 preserveAspectRatio="xMidYMid meet">
<metadata>
Created by potrace 1.11, written by Peter Selinger 2001-2013
</metadata>
<g transform="translate(0.000000,2841.000000) scale(0.100000,-0.100000)"
fill="#000000" stroke="none">
<path d="M1825 17322 c-3 -3 -414 -6 -913 -7 l-907 -1 0 -2397 c0 -1593 3
-2397 10 -2398 14 0 2905 0 2933 0 l22 1 0 2395 0 2394 -517 5 c-285 2 -542 6
-570 8 -29 3 -55 3 -58 0z"/>
<path d="M5075 16699 c-33 -5 -73 -10 -90 -13 -98 -13 -245 -58 -361 -111
-269 -122 -473 -364 -535 -635 -25 -106 -31 -161 -30 -275 0 -424 209 -750
593 -929 51 -24 243 -92 426 -150 492 -158 535 -177 615 -266 79 -88 91 -218
33 -345 -58 -127 -178 -188 -371 -189 -200 -2 -303 31 -411 128 -95 85 -139
207 -139 384 l1 92 -417 0 -416 0 -1 -345 0 -345 119 0 119 0 14 -35 c51 -121
208 -299 341 -386 163 -107 361 -181 550 -206 79 -10 383 -10 460 0 339 47
644 210 819 440 105 138 161 265 202 452 19 86 24 269 11 380 -38 326 -236
603 -525 732 -48 22 -736 257 -783 268 -224 52 -371 144 -402 253 -21 69 -14
171 14 227 62 124 202 186 406 180 188 -5 347 -89 437 -230 45 -71 56 -117 56
-239 l0 -106 418 2 417 3 0 343 c0 336 0 342 -20 343 -11 1 -63 1 -116 0 l-96
-1 -14 32 c-21 51 -121 179 -185 236 -162 146 -374 247 -624 298 -114 23 -392
30 -515 13z"/>
<path d="M22440 16663 c-307 -46 -526 -132 -760 -297 -170 -121 -377 -345
-472 -513 -122 -214 -212 -458 -243 -658 -28 -183 -29 -484 -1 -630 33 -176
76 -330 121 -430 143 -321 311 -543 555 -731 58 -45 84 -63 141 -99 88 -55
330 -161 410 -179 129 -30 162 -37 214 -43 119 -16 470 -8 527 12 7 2 29 6 48
9 84 13 247 69 375 131 290 139 529 371 672 650 47 93 99 223 91 230 -11 11
-696 204 -725 205 -7 0 -27 -28 -44 -62 -44 -87 -97 -157 -173 -227 -21 -20
-44 -41 -50 -46 -55 -53 -214 -134 -313 -161 -80 -21 -251 -26 -340 -9 -446
85 -760 547 -747 1098 12 510 321 932 747 1021 63 13 260 15 312 3 98 -23 130
-34 200 -67 44 -22 93 -49 110 -62 47 -37 142 -139 188 -200 l42 -58 356 0
356 0 -1 388 -1 387 -255 3 -254 2 -46 38 c-55 47 -158 123 -185 138 -11 6
-41 23 -66 37 -43 24 -133 63 -169 73 -8 2 -44 11 -80 19 -36 8 -76 18 -90 21
-29 7 -412 13 -450 7z"/>
<path d="M26190 16667 c-3 -3 -28 -7 -57 -11 -145 -17 -319 -69 -472 -142
-503 -238 -857 -721 -965 -1319 -22 -118 -29 -422 -13 -560 9 -82 51 -277 73
-338 9 -23 17 -49 19 -58 16 -76 167 -377 227 -454 5 -5 31 -39 59 -75 46 -60
192 -215 235 -250 122 -99 242 -176 364 -234 144 -68 257 -103 450 -141 57
-11 380 -15 448 -5 140 21 200 35 322 77 335 112 629 341 848 660 40 58 152
271 179 338 50 128 103 334 118 455 3 25 7 63 10 85 6 49 6 285 0 340 -11 107
-17 148 -36 239 -11 55 -24 106 -28 115 -5 9 -11 31 -14 49 -17 89 -136 344
-219 469 -218 329 -521 565 -875 682 -50 17 -102 32 -115 35 -12 2 -45 9 -73
15 -27 6 -63 13 -80 17 -35 7 -399 17 -405 11z m377 -747 c287 -81 523 -328
627 -659 14 -45 28 -96 31 -114 3 -17 8 -39 10 -47 17 -63 23 -300 10 -390
-22 -158 -51 -260 -109 -384 -120 -261 -342 -453 -593 -512 -82 -20 -239 -26
-308 -13 -27 5 -63 12 -80 15 -58 10 -161 57 -240 110 -155 102 -278 252 -357
436 -113 262 -132 510 -63 842 10 47 65 185 102 256 140 263 384 448 633 477
25 3 47 7 49 9 13 12 224 -7 288 -26z"/>
<path d="M7159 16608 c-1 -4 -1 -648 0 -670 1 -16 17 -18 181 -18 137 0 180
-3 181 -12 0 -7 1 -492 2 -1078 l0 -1065 -184 -3 -184 -2 2 -308 c1 -169 2
-310 2 -314 1 -5 624 -8 1385 -8 l1384 0 0 625 0 625 -374 0 -374 0 -1 -22 c0
-13 -1 -152 -1 -311 l-1 -287 -445 2 -445 3 1 375 c1 206 1 385 1 398 l1 22
344 0 344 0 0 335 0 335 -344 0 c-321 0 -344 1 -345 18 -1 20 0 617 0 650 l1
22 444 0 444 0 0 -227 c0 -126 1 -236 1 -245 1 -17 26 -18 375 -18 l375 0 -1
590 0 590 -1384 0 c-761 0 -1384 -1 -1385 -2z"/>
<path d="M10287 16603 c-2 -5 -3 -242 -3 -528 l1 -520 375 0 375 0 0 220 0
220 204 3 c119 1 207 -1 210 -7 5 -7 7 -2196 2 -2223 0 -5 -81 -8 -179 -8
l-177 0 0 -315 0 -315 746 0 746 0 1 315 1 315 -184 0 -185 0 0 1120 0 1120
238 -2 237 -3 0 -222 0 -223 377 0 c295 0 378 3 379 13 0 15 0 970 0 1015 l-1
32 -1579 0 c-869 0 -1582 -3 -1584 -7z"/>
<path d="M13919 16608 c0 -2 -1 -144 -2 -316 l-2 -312 181 0 181 0 0 -1110 0
-1110 -179 0 c-135 0 -178 -3 -179 -12 -1 -16 -1 -600 0 -610 1 -5 325 -8 721
-8 569 0 720 3 721 13 3 43 4 594 1 605 -3 9 -44 12 -161 12 l-158 0 1 378 1
377 215 -1 c227 0 293 -10 387 -55 142 -69 244 -243 278 -474 3 -23 7 -50 9
-60 7 -36 19 -110 21 -125 6 -38 20 -125 63 -385 l47 -280 506 -3 506 -2 -2
327 c-2 181 -3 334 -4 340 -1 9 -40 13 -143 15 l-142 3 -22 85 c-12 47 -43
166 -68 265 -26 99 -58 210 -72 246 -52 139 -136 249 -247 324 -44 30 -47 34
-27 40 19 6 151 79 175 97 215 159 322 333 358 583 20 139 14 285 -18 410 -83
326 -328 572 -680 684 -187 59 -186 59 -1272 60 -546 1 -993 0 -994 -1z m1767
-645 c251 -47 389 -205 378 -433 -10 -202 -131 -322 -379 -376 -16 -4 -168 -9
-336 -11 l-306 -5 0 422 0 421 282 -2 c198 -1 305 -6 361 -16z"/>
<path d="M18607 16603 c-3 -5 -186 -552 -407 -1218 -222 -665 -434 -1303 -472
-1417 l-70 -208 -129 0 -129 0 0 -315 0 -315 662 2 661 3 0 300 c-1 165 -2
306 -2 313 -1 9 -44 12 -181 12 -99 0 -180 3 -180 7 0 4 32 109 71 233 38 124
72 233 75 243 5 16 39 17 540 17 294 0 534 -2 534 -4 0 -2 34 -111 75 -242 41
-132 75 -242 75 -246 0 -5 -76 -8 -170 -8 l-170 0 -1 -32 c0 -18 -1 -160 -2
-315 l-2 -283 663 0 662 0 0 315 0 314 -127 3 -127 3 -33 105 c-19 58 -69 213
-113 345 -43 132 -138 422 -210 645 -72 223 -140 430 -150 460 -10 30 -50 152
-88 270 -39 118 -129 396 -202 618 l-131 402 -459 0 c-252 0 -461 -3 -463 -7z
m557 -1020 c65 -208 131 -421 148 -473 57 -183 78 -253 75 -257 -2 -2 -159 -2
-349 -1 l-344 3 94 300 c51 165 95 307 97 315 2 8 17 58 33 110 72 227 112
357 112 368 0 48 30 -36 134 -365z"/>
<path d="M10830 12346 c-138 -40 -247 -146 -298 -290 -21 -58 -25 -89 -25
-171 0 -158 44 -270 143 -365 83 -80 153 -105 290 -105 93 0 112 3 162 27 60
28 148 102 148 124 0 8 5 14 10 14 6 0 10 -35 10 -84 l0 -84 57 2 56 1 0 200
c-1 110 -2 210 -2 223 l-1 22 -195 0 -195 0 -1 -27 c-2 -38 2 -57 11 -63 4 -3
61 -5 125 -4 l117 0 -7 -34 c-8 -43 -48 -108 -88 -144 -77 -70 -226 -85 -330
-34 -116 56 -178 165 -183 321 -2 81 1 98 27 162 35 84 94 149 165 184 75 36
180 34 258 -6 38 -19 70 -45 90 -72 l31 -42 68 -1 c38 0 67 4 68 10 0 6 1 24
1 40 0 57 -1 60 -28 60 -17 0 -43 15 -71 41 -24 22 -74 55 -110 71 -56 27 -79
32 -162 34 -59 2 -113 -2 -141 -10z"/>
<path d="M9009 12320 c-1 -11 -1 -29 -1 -40 0 -49 1 -50 45 -50 l42 0 -1 -347
c-1 -192 -2 -351 -3 -355 0 -5 -19 -8 -41 -8 l-40 0 0 -55 0 -55 153 0 152 0
0 55 0 55 -47 0 c-43 0 -48 2 -49 23 -4 129 -3 617 2 617 3 0 15 -17 26 -37
29 -53 53 -94 115 -204 30 -52 57 -102 61 -110 3 -8 55 -99 115 -204 l108
-190 82 -3 82 -3 0 411 0 410 40 0 40 0 0 55 0 55 -153 0 -154 0 1 -55 1 -55
51 0 52 0 0 -315 c0 -173 -3 -315 -7 -315 -4 0 -15 15 -24 33 -9 17 -21 39
-27 47 -12 17 -210 372 -210 375 0 1 -34 62 -75 135 -41 73 -75 136 -75 141 0
5 -58 9 -130 9 -123 0 -130 -1 -131 -20z"/>
<path d="M10049 12320 c-1 -11 -1 -29 -1 -40 0 -49 1 -50 45 -50 l42 0 -1
-347 c-1 -192 -2 -351 -3 -355 0 -5 -19 -8 -41 -8 -38 0 -40 -2 -41 -30 -1
-16 -2 -40 -2 -52 -1 -23 0 -23 151 -26 l152 -3 0 56 0 55 -45 0 c-41 0 -45 2
-46 25 0 14 0 162 0 330 0 168 0 316 0 330 1 23 5 25 46 25 l45 0 0 55 0 55
-150 0 c-143 0 -150 -1 -151 -20z"/>
<path d="M11624 12288 l1 -53 45 -5 45 -5 0 -350 0 -350 -45 -5 -46 -5 1 -50
0 -50 336 -3 337 -2 -1 130 0 130 -63 0 c-44 0 -64 -4 -65 -12 0 -7 -1 -40 -2
-73 l-2 -60 -162 -3 -163 -2 0 165 0 165 139 0 140 0 -2 45 -1 45 -138 0 -138
0 0 145 0 145 165 0 165 0 0 -75 0 -75 64 0 63 0 0 130 0 130 -337 0 -336 0 0
-52z"/>
<path d="M12454 12288 l1 -53 45 -5 45 -5 0 -350 0 -350 -45 -3 -46 -3 0 -54
1 -55 152 0 c95 0 153 4 154 10 1 6 1 26 1 45 0 19 0 40 -1 45 -1 6 -21 10
-46 10 -40 0 -45 3 -46 23 0 23 0 247 1 281 0 17 7 18 90 14 140 -7 161 -30
210 -228 17 -69 36 -142 41 -163 l10 -38 92 3 91 3 -1 45 c-1 25 -2 48 -2 53
-1 4 -18 7 -40 7 l-38 0 -34 131 c-29 114 -38 136 -71 174 -41 47 -45 55 -25
55 25 0 95 70 118 116 46 97 13 235 -71 290 -72 48 -104 53 -352 54 l-234 1 0
-53z m488 -82 c60 -39 79 -114 47 -185 -27 -61 -74 -79 -211 -81 -91 -1 -108
1 -109 15 0 8 0 60 0 115 0 55 0 114 0 131 l1 32 123 -5 c94 -4 129 -9 149
-22z"/>
<path d="M13409 12333 c0 -5 -1 -29 -2 -56 l-2 -47 45 0 45 0 -1 -347 c-1
-192 -2 -351 -3 -355 0 -5 -19 -8 -41 -8 -22 0 -40 -4 -41 -10 -1 -5 -1 -19
-1 -30 0 -11 0 -31 1 -45 l1 -25 149 0 149 0 1 54 0 55 -46 3 -46 3 1 345 c0
190 1 348 1 353 1 4 21 7 44 7 l44 0 2 55 2 55 -151 0 c-82 0 -150 -3 -151 -7z"/>
<path d="M14061 11930 l-145 -410 -41 0 -42 0 1 -52 2 -53 152 -3 152 -3 0 56
0 55 -45 0 c-30 0 -45 4 -44 13 0 6 15 53 32 102 l32 90 179 0 179 0 29 -80
c47 -127 47 -125 2 -125 -39 0 -39 0 -37 -37 1 -21 2 -46 2 -55 1 -16 15 -18
151 -18 l150 0 1 25 c3 87 7 80 -43 83 -45 3 -47 5 -62 45 -9 23 -74 206 -145
407 l-128 365 -94 3 -94 3 -144 -411z m314 73 l64 -183 -144 0 c-80 0 -145 2
-145 4 0 4 125 367 136 396 7 18 6 21 89 -217z"/>
<path d="M15194 12285 l1 -55 45 0 45 0 0 -362 0 -363 -45 -5 -45 -5 0 -40 0
-40 353 -3 352 -2 1 27 c1 27 0 215 -1 241 0 8 -19 12 -58 12 l-58 0 -2 -77
c-1 -113 -2 -113 -208 -113 l-164 0 0 365 0 365 45 0 c48 0 47 -1 47 70 0 11
0 25 -1 30 -1 6 -60 10 -154 10 l-154 0 1 -55z"/>
<path d="M16039 12330 c0 -5 -1 -23 -1 -40 0 -58 0 -59 45 -62 l42 -3 0 -350
0 -350 -45 -5 -45 -5 1 -40 c1 -22 2 -46 3 -52 1 -10 38 -13 151 -13 l149 0 0
55 -1 55 -44 0 c-42 0 -44 1 -44 30 -1 17 -1 154 -1 305 0 151 0 298 1 325 l0
50 44 0 44 0 1 55 0 55 -149 0 c-93 0 -150 -4 -151 -10z"/>
<path d="M16559 12330 c-1 -5 -1 -21 -1 -35 0 -66 -1 -65 45 -65 l42 0 0 -352
0 -353 -45 -5 -45 -5 0 -52 -1 -53 153 0 c163 0 155 -3 155 50 0 59 0 59 -49
62 l-48 3 0 347 c0 190 3 344 7 342 5 -3 8 -10 8 -15 0 -6 11 -35 25 -65 14
-30 25 -57 25 -61 0 -5 111 -286 130 -328 5 -11 37 -92 72 -180 l63 -160 47 0
c27 1 52 5 57 10 5 6 48 109 95 230 48 121 90 229 95 240 5 11 35 88 67 170
31 83 60 153 63 157 5 6 7 -657 2 -684 0 -5 -23 -8 -49 -8 l-49 0 1 -52 2 -53
152 -3 152 -3 0 56 0 55 -43 0 -44 0 0 355 0 355 44 0 43 0 0 55 0 55 -144 0
c-128 0 -144 -2 -149 -17 -4 -10 -13 -34 -20 -53 -22 -55 -58 -154 -62 -170
-2 -8 -43 -118 -90 -244 -47 -126 -90 -246 -97 -267 -13 -46 -21 -43 -41 14
-43 120 -78 218 -97 267 -12 30 -23 62 -25 70 -4 16 -78 216 -121 333 l-26 67
-149 0 c-92 0 -149 -4 -150 -10z"/>
<path d="M17939 12335 c0 -3 -1 -18 -1 -35 0 -72 -1 -70 45 -70 l42 0 -1 -343
c-1 -188 -2 -348 -3 -354 -1 -8 -16 -13 -41 -13 -22 0 -40 -4 -41 -10 0 -5 -1
-23 -1 -40 0 -65 -11 -61 150 -58 l147 3 2 53 1 52 -44 0 c-39 0 -44 3 -44 23
-1 43 -1 572 -1 630 l1 57 43 0 44 0 1 55 1 55 -150 0 c-82 0 -149 -2 -150 -5z"/>
<path d="M18394 12220 l1 -120 65 0 65 0 -1 75 -2 75 104 0 c57 0 104 -3 104
-7 1 -15 1 -600 1 -660 l-1 -63 -40 0 c-22 0 -40 -4 -41 -10 -1 -5 -1 -19 -1
-30 0 -11 0 -31 1 -45 l1 -25 150 0 c93 0 150 4 151 10 0 6 1 26 1 45 0 19 -1
39 -1 44 -1 6 -22 11 -48 13 l-48 3 0 360 0 360 123 3 122 3 0 -76 0 -75 63 0
64 0 1 120 2 120 -418 0 -418 0 0 -120z"/>
<path d="M19374 12288 l1 -53 45 -5 45 -5 1 -340 c0 -187 -2 -346 -4 -352 -2
-8 -21 -13 -46 -13 l-41 0 0 -55 0 -55 336 0 336 0 1 130 1 130 -65 0 c-72 0
-67 7 -66 -92 l1 -58 -164 0 -165 0 0 165 0 164 138 3 137 3 3 43 3 42 -140 0
-141 0 0 145 0 145 164 0 164 0 -1 -72 -1 -73 66 -3 66 -3 0 131 0 130 -337 0
-337 0 0 -52z"/>
<path d="M20215 12285 l0 -55 45 0 45 0 -1 -342 c-1 -189 -2 -349 -3 -355 -1
-8 -17 -13 -44 -13 l-43 0 0 -56 1 -56 230 4 c219 3 233 4 285 28 182 81 283
240 282 445 -1 204 -119 370 -309 434 -50 17 -87 20 -273 21 l-216 1 1 -56z
m475 -84 c119 -58 191 -179 191 -320 -1 -36 -2 -73 -4 -81 -25 -121 -116 -230
-218 -263 -32 -11 -85 -17 -140 -17 l-89 0 0 356 0 357 108 -5 c83 -4 117 -10
152 -27z"/>
</g>
</svg>
